<?xml version="1.0" encoding="UTF-8" standalone="no"?>
<!DOCTYPE svg PUBLIC "-//W3C//DTD SVG 1.1//EN" "http://www.w3.org/Graphics/SVG/1.1/DTD/svg11.dtd">
<svg width="100%" height="100%" viewBox="0 0 600 520" version="1.1" xmlns="http://www.w3.org/2000/svg" xmlns:xlink="http://www.w3.org/1999/xlink" xml:space="preserve" xmlns:serif="http://www.serif.com/" style="fill-rule:evenodd;clip-rule:evenodd;stroke-linejoin:round;stroke-miterlimit:2;">
    <g transform="matrix(-2.28365,1.36164e-16,9.93872e-16,-2.80752,1286.59,1376.56)">
        <path d="M407.134,338.67C412.884,330.625 423.461,325.676 434.901,325.676C446.341,325.676 456.917,330.625 462.667,338.67C483.102,367.259 510.778,405.979 531.281,434.664C537.057,442.745 537.085,452.721 531.354,460.824C525.623,468.927 515.006,473.921 503.514,473.921C462.576,473.921 407.225,473.921 366.287,473.921C354.795,473.921 344.178,468.927 338.447,460.824C332.716,452.721 332.744,442.745 338.52,434.664C359.024,405.979 386.699,367.259 407.134,338.67Z"/>
    </g>
</svg>
